<?xml version="1.0" encoding="UTF-8" standalone="no"?>
<!DOCTYPE svg PUBLIC "-//W3C//DTD SVG 1.1//EN"
 "http://www.w3.org/Graphics/SVG/1.1/DTD/svg11.dtd">
<!-- Generated by graphviz version 2.38.0 (20140413.2041)
 -->
<!-- Title: name Pages: 1 -->
<svg width="278pt" height="332pt"
 viewBox="0.00 0.00 278.00 332.00" xmlns="http://www.w3.org/2000/svg" xmlns:xlink="http://www.w3.org/1999/xlink">
<g id="graph0" class="graph" transform="scale(1 1) rotate(0) translate(4 328)">
<title>name</title>
<polygon fill="white" stroke="none" points="-4,4 -4,-328 274,-328 274,4 -4,4"/>
<!-- N140521302392864 -->
<g id="node1" class="node"><title>N140521302392864</title>
<ellipse fill="none" stroke="black" cx="99" cy="-306" rx="27" ry="18"/>
<text text-anchor="middle" x="99" y="-301.8" font-family="Times,serif" font-size="14.00">a</text>
</g>
<!-- N140521303441664 -->
<g id="node2" class="node"><title>N140521303441664</title>
<ellipse fill="none" stroke="black" cx="243" cy="-306" rx="27" ry="18"/>
<text text-anchor="middle" x="243" y="-301.8" font-family="Times,serif" font-size="14.00">c</text>
</g>
<!-- N140521302392864&#45;&gt;N140521303441664 -->
<g id="edge2" class="edge"><title>N140521302392864&#45;&gt;N140521303441664</title>
<path fill="none" stroke="indianred" d="M126,-306C152.477,-306 178.954,-306 205.431,-306"/>
<polygon fill="indianred" stroke="indianred" points="205.578,-309.5 215.578,-306 205.578,-302.5 205.578,-309.5"/>
</g>
<!-- N140521303441408 -->
<g id="node3" class="node"><title>N140521303441408</title>
<ellipse fill="none" stroke="black" cx="27" cy="-234" rx="27" ry="18"/>
<text text-anchor="middle" x="27" y="-229.8" font-family="Times,serif" font-size="14.00">a</text>
</g>
<!-- N140521302392864&#45;&gt;N140521303441408 -->
<g id="edge1" class="edge"><title>N140521302392864&#45;&gt;N140521303441408</title>
<path fill="none" stroke="chartreuse" d="M84.4297,-290.834C74.2501,-280.938 60.4761,-267.546 48.9694,-256.359"/>
<polygon fill="chartreuse" stroke="chartreuse" points="51.4055,-253.846 41.7957,-249.385 46.5259,-258.865 51.4055,-253.846"/>
</g>
<!-- N140521303441696 -->
<g id="node14" class="node"><title>N140521303441696</title>
<ellipse fill="none" stroke="black" cx="243" cy="-234" rx="27" ry="18"/>
<text text-anchor="middle" x="243" y="-229.8" font-family="Times,serif" font-size="14.00">b</text>
</g>
<!-- N140521303441664&#45;&gt;N140521303441696 -->
<g id="edge19" class="edge"><title>N140521303441664&#45;&gt;N140521303441696</title>
<path fill="none" stroke="chartreuse" d="M237.16,-288.411C236.297,-280.507 236.048,-270.852 236.412,-261.935"/>
<polygon fill="chartreuse" stroke="chartreuse" points="239.903,-262.179 237.121,-251.956 232.921,-261.683 239.903,-262.179"/>
</g>
<!-- N140521303441504 -->
<g id="node4" class="node"><title>N140521303441504</title>
<ellipse fill="none" stroke="black" cx="99" cy="-234" rx="27" ry="18"/>
<text text-anchor="middle" x="99" y="-229.8" font-family="Times,serif" font-size="14.00">b</text>
</g>
<!-- N140521303441408&#45;&gt;N140521303441504 -->
<g id="edge4" class="edge"><title>N140521303441408&#45;&gt;N140521303441504</title>
<path fill="none" stroke="indianred" d="M54,-234C56.6147,-234 59.2295,-234 61.8442,-234"/>
<polygon fill="indianred" stroke="indianred" points="61.9297,-237.5 71.9297,-234 61.9297,-230.5 61.9297,-237.5"/>
</g>
<!-- N140521303441440 -->
<g id="node5" class="node"><title>N140521303441440</title>
<ellipse fill="none" stroke="black" cx="27" cy="-162" rx="27" ry="18"/>
<text text-anchor="middle" x="27" y="-157.8" font-family="Times,serif" font-size="14.00">a</text>
</g>
<!-- N140521303441408&#45;&gt;N140521303441440 -->
<g id="edge3" class="edge"><title>N140521303441408&#45;&gt;N140521303441440</title>
<path fill="none" stroke="chartreuse" d="M21.1601,-216.411C20.2975,-208.507 20.0481,-198.852 20.4119,-189.935"/>
<polygon fill="chartreuse" stroke="chartreuse" points="23.9033,-190.179 21.1206,-179.956 16.9209,-189.683 23.9033,-190.179"/>
</g>
<!-- N140521303441504&#45;&gt;N140521302392864 -->
<g id="edge10" class="edge"><title>N140521303441504&#45;&gt;N140521302392864</title>
<path fill="none" stroke="black" stroke-dasharray="1,5" d="M99,-252.104C99,-259.791 99,-269.054 99,-277.665"/>
<polygon fill="black" stroke="black" points="95.5001,-277.697 99,-287.697 102.5,-277.697 95.5001,-277.697"/>
</g>
<!-- N140521303441536 -->
<g id="node8" class="node"><title>N140521303441536</title>
<ellipse fill="none" stroke="black" cx="99" cy="-162" rx="27" ry="18"/>
<text text-anchor="middle" x="99" y="-157.8" font-family="Times,serif" font-size="14.00">a</text>
</g>
<!-- N140521303441504&#45;&gt;N140521303441536 -->
<g id="edge9" class="edge"><title>N140521303441504&#45;&gt;N140521303441536</title>
<path fill="none" stroke="chartreuse" d="M99,-215.697C99,-207.983 99,-198.712 99,-190.112"/>
<polygon fill="chartreuse" stroke="chartreuse" points="102.5,-190.104 99,-180.104 95.5001,-190.104 102.5,-190.104"/>
</g>
<!-- N140521303441440&#45;&gt;N140521303441408 -->
<g id="edge6" class="edge"><title>N140521303441440&#45;&gt;N140521303441408</title>
<path fill="none" stroke="black" stroke-dasharray="1,5" d="M32.8794,-179.956C33.7139,-187.827 33.9485,-197.374 33.5831,-206.187"/>
<polygon fill="black" stroke="black" points="30.0742,-206.184 32.8399,-216.411 37.0558,-206.691 30.0742,-206.184"/>
</g>
<!-- N140521303441472 -->
<g id="node6" class="node"><title>N140521303441472</title>
<ellipse fill="none" stroke="black" cx="27" cy="-90" rx="27" ry="18"/>
<text text-anchor="middle" x="27" y="-85.8" font-family="Times,serif" font-size="14.00">\0</text>
</g>
<!-- N140521303441440&#45;&gt;N140521303441472 -->
<g id="edge5" class="edge"><title>N140521303441440&#45;&gt;N140521303441472</title>
<path fill="none" stroke="chartreuse" d="M21.1601,-144.411C20.2975,-136.507 20.0481,-126.852 20.4119,-117.935"/>
<polygon fill="chartreuse" stroke="chartreuse" points="23.9033,-118.179 21.1206,-107.956 16.9209,-117.683 23.9033,-118.179"/>
</g>
<!-- N140521303441472&#45;&gt;N140521303441440 -->
<g id="edge8" class="edge"><title>N140521303441472&#45;&gt;N140521303441440</title>
<path fill="none" stroke="black" stroke-dasharray="1,5" d="M32.8794,-107.956C33.7139,-115.827 33.9485,-125.374 33.5831,-134.187"/>
<polygon fill="black" stroke="black" points="30.0742,-134.184 32.8399,-144.411 37.0558,-134.691 30.0742,-134.184"/>
</g>
<!-- D1 -->
<g id="node7" class="node"><title>D1</title>
<ellipse fill="none" stroke="black" cx="27" cy="-18" rx="27" ry="18"/>
<text text-anchor="middle" x="27" y="-13.8" font-family="Times,serif" font-size="14.00">D1</text>
</g>
<!-- N140521303441472&#45;&gt;D1 -->
<g id="edge7" class="edge"><title>N140521303441472&#45;&gt;D1</title>
<path fill="none" stroke="steelblue" d="M27,-71.6966C27,-63.9827 27,-54.7125 27,-46.1124"/>
<polygon fill="steelblue" stroke="steelblue" points="30.5001,-46.1043 27,-36.1043 23.5001,-46.1044 30.5001,-46.1043"/>
</g>
<!-- N140521303441600 -->
<g id="node9" class="node"><title>N140521303441600</title>
<ellipse fill="none" stroke="black" cx="171" cy="-162" rx="27" ry="18"/>
<text text-anchor="middle" x="171" y="-157.8" font-family="Times,serif" font-size="14.00">b</text>
</g>
<!-- N140521303441536&#45;&gt;N140521303441600 -->
<g id="edge12" class="edge"><title>N140521303441536&#45;&gt;N140521303441600</title>
<path fill="none" stroke="indianred" d="M126,-162C128.615,-162 131.229,-162 133.844,-162"/>
<polygon fill="indianred" stroke="indianred" points="133.93,-165.5 143.93,-162 133.93,-158.5 133.93,-165.5"/>
</g>
<!-- N140521303441568 -->
<g id="node10" class="node"><title>N140521303441568</title>
<ellipse fill="none" stroke="black" cx="99" cy="-90" rx="27" ry="18"/>
<text text-anchor="middle" x="99" y="-85.8" font-family="Times,serif" font-size="14.00">\0</text>
</g>
<!-- N140521303441536&#45;&gt;N140521303441568 -->
<g id="edge11" class="edge"><title>N140521303441536&#45;&gt;N140521303441568</title>
<path fill="none" stroke="chartreuse" d="M93.1601,-144.411C92.2975,-136.507 92.0481,-126.852 92.4119,-117.935"/>
<polygon fill="chartreuse" stroke="chartreuse" points="95.9033,-118.179 93.1206,-107.956 88.9209,-117.683 95.9033,-118.179"/>
</g>
<!-- N140521303441600&#45;&gt;N140521303441504 -->
<g id="edge16" class="edge"><title>N140521303441600&#45;&gt;N140521303441504</title>
<path fill="none" stroke="black" stroke-dasharray="1,5" d="M156.204,-177.385C146.069,-187.238 132.451,-200.478 121.044,-211.568"/>
<polygon fill="black" stroke="black" points="118.3,-209.354 113.57,-218.834 123.18,-214.373 118.3,-209.354"/>
</g>
<!-- N140521303441632 -->
<g id="node12" class="node"><title>N140521303441632</title>
<ellipse fill="none" stroke="black" cx="171" cy="-90" rx="27" ry="18"/>
<text text-anchor="middle" x="171" y="-85.8" font-family="Times,serif" font-size="14.00">\0</text>
</g>
<!-- N140521303441600&#45;&gt;N140521303441632 -->
<g id="edge15" class="edge"><title>N140521303441600&#45;&gt;N140521303441632</title>
<path fill="none" stroke="chartreuse" d="M165.16,-144.411C164.297,-136.507 164.048,-126.852 164.412,-117.935"/>
<polygon fill="chartreuse" stroke="chartreuse" points="167.903,-118.179 165.121,-107.956 160.921,-117.683 167.903,-118.179"/>
</g>
<!-- N140521303441568&#45;&gt;N140521303441536 -->
<g id="edge14" class="edge"><title>N140521303441568&#45;&gt;N140521303441536</title>
<path fill="none" stroke="black" stroke-dasharray="1,5" d="M104.879,-107.956C105.714,-115.827 105.948,-125.374 105.583,-134.187"/>
<polygon fill="black" stroke="black" points="102.074,-134.184 104.84,-144.411 109.056,-134.691 102.074,-134.184"/>
</g>
<!-- D2 -->
<g id="node11" class="node"><title>D2</title>
<ellipse fill="none" stroke="black" cx="99" cy="-18" rx="27" ry="18"/>
<text text-anchor="middle" x="99" y="-13.8" font-family="Times,serif" font-size="14.00">D2</text>
</g>
<!-- N140521303441568&#45;&gt;D2 -->
<g id="edge13" class="edge"><title>N140521303441568&#45;&gt;D2</title>
<path fill="none" stroke="steelblue" d="M99,-71.6966C99,-63.9827 99,-54.7125 99,-46.1124"/>
<polygon fill="steelblue" stroke="steelblue" points="102.5,-46.1043 99,-36.1043 95.5001,-46.1044 102.5,-46.1043"/>
</g>
<!-- N140521303441632&#45;&gt;N140521303441600 -->
<g id="edge18" class="edge"><title>N140521303441632&#45;&gt;N140521303441600</title>
<path fill="none" stroke="black" stroke-dasharray="1,5" d="M176.879,-107.956C177.714,-115.827 177.948,-125.374 177.583,-134.187"/>
<polygon fill="black" stroke="black" points="174.074,-134.184 176.84,-144.411 181.056,-134.691 174.074,-134.184"/>
</g>
<!-- D3 -->
<g id="node13" class="node"><title>D3</title>
<ellipse fill="none" stroke="black" cx="171" cy="-18" rx="27" ry="18"/>
<text text-anchor="middle" x="171" y="-13.8" font-family="Times,serif" font-size="14.00">D3</text>
</g>
<!-- N140521303441632&#45;&gt;D3 -->
<g id="edge17" class="edge"><title>N140521303441632&#45;&gt;D3</title>
<path fill="none" stroke="steelblue" d="M171,-71.6966C171,-63.9827 171,-54.7125 171,-46.1124"/>
<polygon fill="steelblue" stroke="steelblue" points="174.5,-46.1043 171,-36.1043 167.5,-46.1044 174.5,-46.1043"/>
</g>
<!-- N140521303441696&#45;&gt;N140521303441664 -->
<g id="edge21" class="edge"><title>N140521303441696&#45;&gt;N140521303441664</title>
<path fill="none" stroke="black" stroke-dasharray="1,5" d="M248.879,-251.956C249.714,-259.827 249.948,-269.374 249.583,-278.187"/>
<polygon fill="black" stroke="black" points="246.074,-278.184 248.84,-288.411 253.056,-278.691 246.074,-278.184"/>
</g>
<!-- N140521303441728 -->
<g id="node15" class="node"><title>N140521303441728</title>
<ellipse fill="none" stroke="black" cx="243" cy="-162" rx="27" ry="18"/>
<text text-anchor="middle" x="243" y="-157.8" font-family="Times,serif" font-size="14.00">\0</text>
</g>
<!-- N140521303441696&#45;&gt;N140521303441728 -->
<g id="edge20" class="edge"><title>N140521303441696&#45;&gt;N140521303441728</title>
<path fill="none" stroke="chartreuse" d="M237.16,-216.411C236.297,-208.507 236.048,-198.852 236.412,-189.935"/>
<polygon fill="chartreuse" stroke="chartreuse" points="239.903,-190.179 237.121,-179.956 232.921,-189.683 239.903,-190.179"/>
</g>
<!-- N140521303441728&#45;&gt;N140521303441696 -->
<g id="edge23" class="edge"><title>N140521303441728&#45;&gt;N140521303441696</title>
<path fill="none" stroke="black" stroke-dasharray="1,5" d="M248.879,-179.956C249.714,-187.827 249.948,-197.374 249.583,-206.187"/>
<polygon fill="black" stroke="black" points="246.074,-206.184 248.84,-216.411 253.056,-206.691 246.074,-206.184"/>
</g>
<!-- D4 -->
<g id="node16" class="node"><title>D4</title>
<ellipse fill="none" stroke="black" cx="243" cy="-90" rx="27" ry="18"/>
<text text-anchor="middle" x="243" y="-85.8" font-family="Times,serif" font-size="14.00">D4</text>
</g>
<!-- N140521303441728&#45;&gt;D4 -->
<g id="edge22" class="edge"><title>N140521303441728&#45;&gt;D4</title>
<path fill="none" stroke="steelblue" d="M243,-143.697C243,-135.983 243,-126.712 243,-118.112"/>
<polygon fill="steelblue" stroke="steelblue" points="246.5,-118.104 243,-108.104 239.5,-118.104 246.5,-118.104"/>
</g>
</g>
</svg>
